# xmcd
#
# Track frame offsets:
#	150
#	22868
#	40507
#	62357
#	85969
#	103532
#	144636
#	166687
#	208990
#	227445
#
# Disc length: 3288 seconds
#
# Revision: 1
# Processed by: cddbd v1.4PL0 Copyright (c) Steve Scherf et al.
# Submitted via: EasyCDDAExtractor 5.0.6
#
DISCID=710cd60a
DTITLE=Jude Bowerman - Can't Help Myself
DYEAR=1998
DGENRE=Blues
TTITLE0=Can't Help Myself
TTITLE1=The Fever
TTITLE2=All Your Love I Miss Loving
TTITLE3=World House
TTITLE4=Phone Booth
TTITLE5=Too Many Dirty Dishes
TTITLE6=You Brought The Sunshine Inside
TTITLE7=Left My Baby For The Blues
TTITLE8=Someone Else Is Steppin' In
TTITLE9=Straight Up Train
EXTD=
EXTT0=
EXTT1=
EXTT2=
EXTT3=
EXTT4=
EXTT5=
EXTT6=
EXTT7=
EXTT8=
EXTT9=
PLAYORDER=
